<?xml version="1.0" encoding="UTF-8" standalone="no"?>
<!-- Created with Inkscape (http://www.inkscape.org/) -->

<svg
   width="512"
   height="256"
   version="1.1"
   viewBox="0 0 512 256"
   id="svg5"
   sodipodi:docname="iqmat.svg"
   inkscape:version="1.3.2 (091e20ef0f, 2023-11-25)"
   xmlns:inkscape="http://www.inkscape.org/namespaces/inkscape"
   xmlns:sodipodi="http://sodipodi.sourceforge.net/DTD/sodipodi-0.dtd"
   xmlns="http://www.w3.org/2000/svg"
   xmlns:svg="http://www.w3.org/2000/svg">
  <sodipodi:namedview
     id="namedview5"
     pagecolor="#ffffff"
     bordercolor="#000000"
     borderopacity="0.25"
     inkscape:showpageshadow="2"
     inkscape:pageopacity="0.0"
     inkscape:pagecheckerboard="true"
     inkscape:deskcolor="#d1d1d1"
     inkscape:zoom="2.5273543"
     inkscape:cx="262.72533"
     inkscape:cy="127.20812"
     inkscape:window-width="2538"
     inkscape:window-height="1368"
     inkscape:window-x="0"
     inkscape:window-y="0"
     inkscape:window-maximized="1"
     inkscape:current-layer="svg5" />
  <defs
     id="defs2">
    <clipPath
       id="clipPath20">
      <path
         d="m58.75 311.7v-112.6h22.21v112.6zm139.2 3.862-12.31-12.15q-6.437 4.667-14.24 7.242-7.805 2.575-16.41 2.575-11.43 0-21.48-4.506-10.06-4.586-17.7-12.55-7.644-8.046-11.99-18.59-4.345-10.62-4.345-22.77 0-12.07 4.345-22.61 4.345-10.62 11.99-18.67t17.7-12.55q10.06-4.586 21.48-4.586 11.51 0 21.56 4.586 10.06 4.506 17.7 12.55 7.644 8.046 11.91 18.67 4.345 10.54 4.345 22.61 0 9.012-2.575 17.22-2.494 8.207-6.839 15.29l12.55 12.55zm-42.97-24.54q3.943 0 7.564-0.9656 3.701-1.046 7-2.897l-8.288-8.288 15.69-15.69 7.564 7.564q1.851-3.621 2.816-7.644 0.9656-4.023 0.9656-8.288 0-7.483-2.655-14-2.575-6.598-7.161-11.59-4.586-4.989-10.62-7.805t-12.87-2.816-12.87 2.897q-6.035 2.816-10.62 7.805-4.586 4.989-7.242 11.51-2.575 6.518-2.575 14 0 7.483 2.575 14.08 2.655 6.518 7.242 11.51t10.62 7.805q6.035 2.816 12.87 2.816z"
         display="none"
         fill="#fff"
         stroke-width="0"
         id="path1" />
      <path
         class="powerclip"
         d="m33.01 172.7h201.7v166.6h-201.7zm25.75 139h22.21v-112.6h-22.21zm139.2 3.862 15.69-15.69-12.55-12.55q4.345-7.081 6.839-15.29 2.575-8.207 2.575-17.22 0-12.07-4.345-22.61-4.265-10.62-11.91-18.67-7.644-8.046-17.7-12.55-10.06-4.586-21.56-4.586-11.43 0-21.48 4.586-10.06 4.506-17.7 12.55t-11.99 18.67q-4.345 10.54-4.345 22.61 0 12.15 4.345 22.77 4.345 10.54 11.99 18.59 7.644 7.966 17.7 12.55 10.06 4.506 21.48 4.506 8.61 0 16.41-2.575 7.805-2.575 14.24-7.242zm-42.97-24.54q3.943 0 7.564-0.9656 3.701-1.046 7-2.897l-8.288-8.288 15.69-15.69 7.564 7.564q1.851-3.621 2.816-7.644 0.9656-4.023 0.9656-8.288 0-7.483-2.655-14-2.575-6.598-7.161-11.59-4.586-4.989-10.62-7.805t-12.87-2.816-12.87 2.897q-6.035 2.816-10.62 7.805-4.586 4.989-7.242 11.51-2.575 6.518-2.575 14 0 7.483 2.575 14.08 2.655 6.518 7.242 11.51t10.62 7.805q6.035 2.816 12.87 2.816z"
         display="block"
         fill="#fff"
         stroke-width="0"
         id="path2" />
    </clipPath>
  </defs>
  <g
     transform="translate(-26.22,0.535)"
     stroke-width="0"
     id="g5"
     style="display:inline">
    <path
       transform="matrix(1.077,0,0,1.077,-0.9558,-148.3)"
       x="38.005428"
       y="177.69414"
       width="191.74911"
       height="156.61172"
       d="m 38.01,177.7 h 161.7 a 30,30 45 0 1 30,30 V 334.3 H 68.01 a 30,30 45 0 1 -30,-30 z"
       clip-path="url(#clipPath20)"
       fill="#ffffff"
       id="path3" />
    <path
       d="M 267.3,172.9 V 97.67 h 10.27 v 10.12 c 2.64,-3.716 6.013,-6.673 10.12,-8.873 4.107,-2.2 8.604,-3.3 13.49,-3.3 5.524,0 10.58,1.369 15.18,4.107 4.596,2.689 8.189,6.282 10.78,10.78 2.591,-4.498 6.16,-8.091 10.71,-10.78 4.547,-2.738 9.582,-4.107 15.11,-4.107 5.524,0 10.56,1.344 15.11,4.033 4.547,2.689 8.164,6.307 10.85,10.85 2.689,4.547 4.033,9.582 4.033,15.11 v 47.28 h -10.27 v -45.01 c 0,-3.911 -0.9533,-7.529 -2.86,-10.85 -1.9067,-3.321 -4.473,-5.989 -7.7,-7.993 -3.178,-2.053 -6.722,-3.08 -10.63,-3.08 -3.908,0 -7.48,0.9533 -10.71,2.86 -3.178,1.858 -5.72,4.449 -7.627,7.773 -1.907,3.276 -2.86,7.04 -2.86,11.29 v 45.01 h -10.27 v -45.01 c 0,-4.253 -0.9533,-8.018 -2.86,-11.29 -1.907,-3.324 -4.473,-5.916 -7.7,-7.773 -3.227,-1.907 -6.796,-2.86 -10.71,-2.86 -3.862,0 -7.407,1.027 -10.63,3.08 -3.227,2.004 -5.793,4.669 -7.7,7.993 -1.907,3.324 -2.86,6.942 -2.86,10.85 v 45.01 z M 456.4,97.67 h 10.27 V 172.9 H 456.4 l -0.3128,-13.53 -0.0539,-2.004 c -2.396,4.644 -5.744,8.409 -10.05,11.29 -4.302,2.836 -9.436,4.253 -15.4,4.253 -5.378,0 -10.41,-1.002 -15.11,-3.007 -4.693,-2.053 -8.824,-4.864 -12.39,-8.433 -3.569,-3.569 -6.356,-7.7 -8.36,-12.39 -2.004,-4.69 -3.007,-9.729 -3.007,-15.11 0,-5.28 0.9778,-10.24 2.933,-14.89 2.004,-4.644 4.742,-8.727 8.213,-12.25 3.52,-3.52 7.578,-6.258 12.17,-8.213 4.644,-2.004 9.607,-3.007 14.89,-3.007 6.111,0 11.44,1.467 15.99,4.4 4.547,2.884 8.164,6.673 10.85,11.37 z m -26.03,65.27 c 5.231,0 9.729,-1.271 13.49,-3.813 3.764,-2.591 6.649,-6.062 8.653,-10.41 2.053,-4.351 3.08,-9.142 3.08,-14.37 0,-5.378 -1.027,-10.22 -3.08,-14.52 -2.053,-4.351 -4.962,-7.798 -8.727,-10.34 -3.765,-2.542 -8.238,-3.813 -13.42,-3.813 -5.182,0 -9.924,1.296 -14.23,3.887 -4.253,2.542 -7.651,5.989 -10.19,10.34 -2.493,4.351 -3.74,9.167 -3.74,14.45 0,5.329 1.296,10.17 3.887,14.52 2.591,4.302 6.013,7.724 10.27,10.27 4.302,2.542 8.971,3.813 14.01,3.813 z m 88.44,-55 h -17.53 l -0.0733,64.96 h -10.27 L 491.01,107.94 H 477.74 V 97.67 h 13.27 l -0.0733,-23.03 h 10.27 l 0.0733,23.03 h 17.53 z"
       fill="#ffffff"
       id="path5" />
  </g>
</svg>
